<svg xmlns="http://www.w3.org/2000/svg" viewBox="0 0 1000 1000"><path fill="currentColor" d="M617.8 386.1c90 90.1 90 237.5 0 327.6L409.1 922.5c-90.1 90.1-237.5 90.1-327.6 0l-3.9-3.9c-90.1-90.1-90.1-237.5 0-327.6l146.1-145.9c-.8 42.9 7.1 86.1 23.4 126.6L152.7 666c-48.9 48.8-48.9 128.4 0 177.4l3.9 3.9c48.9 48.9 128.5 48.9 177.4 0l208.8-208.7c48.9-48.9 48.9-128.6 0-177.4l-4-3.8c-7.6-7.6-16-14-25-19.2l76.4-76.4c8.2 6.2 16.2 13 23.7 20.5l3.9 3.8zM922.5 81.5l-3.9-3.9c-90.1-90.1-237.5-90.1-327.6 0L382.2 286.4c-90.1 90.1-90.1 237.5 0 327.6l3.9 3.8c7.5 7.4 15.6 14.2 23.7 20.5l76.4-76.4c-8.9-5.3-17.3-11.6-25-19.2l-3.9-3.8c-48.9-48.9-48.9-128.6 0-177.5l208.8-208.7c48.8-48.9 128.3-48.9 177.3 0l3.9 3.9c48.9 48.9 48.9 128.6 0 177.4L753 428.4c16.4 40.5 24.1 83.6 23.4 126.6l146-146c90.1-90.1 90.1-237.5.1-327.5z"/></svg>