<svg viewBox="0 0 425.963 425.963" xmlns="http://www.w3.org/2000/svg"><path fill="currentColor" d="M213.285 0h-.608C139.114 0 79.268 59.826 79.268 133.361c0 48.202 21.952 111.817 65.246 189.081 32.098 57.281 64.646 101.152 64.972 101.588a4.8 4.8 0 003.847 1.934c.043 0 .087 0 .13-.002a4.805 4.805 0 003.868-2.143c.321-.486 32.637-49.287 64.517-108.976 43.03-80.563 64.848-141.624 64.848-181.482C346.693 59.825 286.846 0 213.285 0zm61.58 136.62c0 34.124-27.761 61.884-61.885 61.884-34.123 0-61.884-27.761-61.884-61.884s27.761-61.884 61.884-61.884c34.124 0 61.885 27.761 61.885 61.884z"/></svg>