<svg viewBox="0 0 48 48" xmlns="http://www.w3.org/2000/svg"><path fill="currentColor" d="m10.8 35.05q3.2-2.05 6.375-3.075 3.175-1.025 6.825-1.025 3.65 0 6.825 1.025 3.175 1.025 6.475 3.075 2.15-2.8 3-5.45.85-2.65.85-5.6 0-7.3-4.925-12.225-4.925-4.925-12.225-4.925-7.3 0-12.225 4.925-4.925 4.925-4.925 12.225 0 2.95.875 5.6.875 2.65 3.075 5.45zm13.2-8.95q-3.15 0-5.3-2.15-2.15-2.15-2.15-5.3 0-3.15 2.15-5.3 2.15-2.15 5.3-2.15 3.15 0 5.3 2.15 2.15 2.15 2.15 5.3 0 3.15-2.15 5.3-2.15 2.15-5.3 2.15zm-.05 18.7q-4.25 0-8.05-1.65-3.8-1.65-6.625-4.5-2.825-2.85-4.45-6.625-1.625-3.775-1.625-8.075 0-4.25 1.65-8.025 1.65-3.775 4.5-6.6 2.85-2.825 6.625-4.475 3.775-1.65 8.075-1.65 4.25 0 8.025 1.65 3.775 1.65 6.6 4.475 2.825 2.825 4.475 6.6 1.65 3.775 1.65 8.075 0 4.25-1.65 8.025-1.65 3.775-4.475 6.625-2.825 2.85-6.6 4.5-3.775 1.65-8.125 1.65z"/></svg>