<svg version="1.0" xmlns="http://www.w3.org/2000/svg" width="1182.667" height="1182.667" viewBox="0 0 887 887"><path d="M431 53.9c-3 1-14.7 6.4-26 12.1-41 20.4-73.9 34.1-105.5 43.9-8.9 2.7-36.3 9.3-48 11.6-4.9.9-9.7 1.8-10.5 2-1.6.3-19.6 3.3-24 4-1.4.2-6.7 1.1-11.8 2-5.1.9-11 1.8-13 2-6.2.7-20.5 4.6-21.9 6.1-.8.7-2.6 2.1-4.1 2.9-3.9 2.4-8.6 9.2-10.7 15.5-1.5 4.5-1.8 8.2-1.6 19.7l.2 14.1-5.6 1.2c-6.6 1.4-9.7 3.9-18.1 14.3-3.3 3.9-6.2 7.4-6.5 7.7-1.9 1.6-11.6 17.2-14.4 23.3-3.3 7.2-8.5 22.6-8.5 25.2 0 .7-1.5 2.2-3.2 3.4-5 3-11.7 11.6-16.6 21.1-2.4 4.7-8 22.9-8.9 29-.8 4.8-.7 21.6.1 26.5.3 2.2 1.2 6.3 2 9.1l1.3 5.1-4.3 4.3c-6.1 6-8 12.7-8.3 28.8-.3 19.3 4.6 39.4 14.8 61.5 2.3 4.9 4.1 9.2 4.1 9.7 0 .4.4 1 .9 1.2.5.1 2.1 2.8 3.6 5.8s5 9 7.6 13.3c4.4 7.1 5.3 10.7 2.6 10.7-.6 0-.8.3-.4.6.3.3-.1 2.5-.9 4.7-1.2 3.4-1.3 5.4-.5 10.3 2.3 12.8 10.3 34.8 16.9 45.9 1 1.6 3.1 5.2 4.7 8 1.6 2.7 3.2 5.2 3.5 5.5.4.3 2.6 3.3 4.9 6.8 4.7 6.9 15.6 20.8 22.8 28.9 4.2 4.8 4.6 5.7 4.8 11 .3 6.2 3.8 16.2 10 28.1 3.7 7.3 6.7 12.4 7.5 13.2.3.3 1.7 2.1 3 4 6.7 9.8 17 21.2 30.9 34 2.6 2.4 14 10.9 22.1 16.6 9.1 6.3 27.6 16.1 38.5 20.5 10 3.9 30.8 10.7 35.5 11.5 1.9.3 4.9 1 6.5 1.4 3.1.9 4.7 1.3 14.5 3.1 6.5 1.2 19.3 2.2 26.8 2.2 4.9 0 5.2.2 5.3 2.6.2 7.5 5 25.4 9.3 34.9 5.4 11.8 17.8 25.8 31.1 34.8 6.7 4.6 17.5 9.1 29 12.1 9.2 2.4 12.7 2.9 21 2.7 12.3-.3 15.6-.7 24.2-3.4 6.7-2 20.9-7.7 22.8-9.2 5.8-4.4 16.4-13 18-14.5 10.9-10.8 20.4-26.7 24.1-40.2 2-7.3 4.2-18 3.7-18.4-.2-.2 2.2-.5 5.2-.6 13.9-.4 41.7-5.5 56.1-10.2 3.3-1.1 6.9-2.1 8-2.3 3.7-.7 23-8.8 32.4-13.5 10.6-5.3 27.2-15.9 33.8-21.4 2.4-2.1 4.8-3.7 5.3-3.7.8 0 26.4-25.2 28.4-28.1.6-.8 2.7-3.4 4.6-5.9 12-14.9 25.3-44.2 23.5-51.6-.4-1.3.2-3 1.5-4.5 1.2-1.3 3.7-4.4 5.7-6.8 3.9-4.6 6-7.1 9.5-11.1 4.7-5.5 16.2-22 21.2-30.5 7.3-12.4 10.8-19.9 14.4-30.8 6.2-18.7 6.8-26.6 2.6-34.6-1.3-2.6-1-3.2 4.7-12.7 13.1-21.4 22.8-44.3 27.3-64.4 2-8.7 2.3-12.8 2.1-24-.3-16.6-1.9-22.3-8.1-28.9l-4.4-4.7 1.5-4.9c5.4-18.1 3-40.9-6.5-62-2-4.4-4-8.5-4.6-9.1-.5-.7-1.9-2.5-3-4-2.7-3.9-9.4-10.4-10.6-10.4-1 0-2.8-3.9-3.5-7.7-.8-4-6.6-19.7-8.4-22.8-1-1.7-2.8-4.7-3.9-6.9-3.3-5.8-13.7-19.4-20-25.9-7.3-7.7-11.7-10-19.6-10.1l-3.1-.1.1-13.9c.1-15.2-2-26.5-5.8-32.1-6.8-9.9-16.8-15.1-33.2-17.1-20.4-2.5-57.4-9.2-72-13-3.3-.8-6.7-1.7-7.5-1.9-.8-.2-3.5-.8-6-1.4-13.3-3-49.5-15-69-22.9-20.6-8.3-63.3-28.1-65-30.1-1.1-1.4-13.9-7.1-18.9-8.6-6.9-1.9-13.1-1.8-20.1.4z"/></svg>